<svg aria-hidden="true" style="position: absolute; width: 0; height: 0; overflow: hidden;" version="1.1" xmlns="http://www.w3.org/2000/svg" xmlns:xlink="http://www.w3.org/1999/xlink">
<defs>
<symbol id="icon-Group-5-1" viewBox="0 0 32 32">
<path fill="#949597" style="fill: var(--color1, #949597)" d="M14.659 10.845c0 2.126-1.724 3.849-3.85 3.849s-3.849-1.723-3.849-3.849c0-2.125 1.723-3.848 3.849-3.848s3.85 1.723 3.85 3.848z"></path>
<path fill="#949597" style="fill: var(--color1, #949597)" d="M25.050 10.845c0 2.126-1.723 3.849-3.85 3.849s-3.849-1.723-3.849-3.849c0-2.125 1.723-3.848 3.849-3.848s3.85 1.723 3.85 3.848z"></path>
<path fill="#949597" style="fill: var(--color1, #949597)" d="M14.659 21.154c0 2.126-1.724 3.849-3.85 3.849s-3.849-1.723-3.849-3.849c0-2.125 1.723-3.848 3.849-3.848s3.85 1.723 3.85 3.848z"></path>
<path fill="#949597" style="fill: var(--color1, #949597)" d="M25.050 21.154c0 2.126-1.723 3.849-3.85 3.849s-3.849-1.723-3.849-3.849c0-2.125 1.723-3.848 3.849-3.848s3.85 1.723 3.85 3.848z"></path>
<path fill="#949597" style="fill: var(--color1, #949597)" d="M31.699 16c0-8.654-7.040-15.694-15.694-15.694s-15.694 7.040-15.694 15.694c0 8.51 6.807 15.459 15.262 15.688l0.431 0.006c8.654 0 15.694-7.040 15.694-15.694zM1.71 16c0-7.741 6.19-14.065 13.882-14.284l0.413-0.006c7.882 0 14.295 6.411 14.295 14.29s-6.413 14.29-14.295 14.29c-7.882 0-14.295-6.411-14.295-14.29z"></path>
</symbol>
</defs>
</svg>
