<svg aria-hidden="true" style="position: absolute; width: 0; height: 0; overflow: hidden;" version="1.1" xmlns="http://www.w3.org/2000/svg" xmlns:xlink="http://www.w3.org/1999/xlink">
<defs>
<symbol id="icon-We-ART" viewBox="0 0 183 32">
<path d="M14.127 25.939l10.146-25.346c0.066-0.188 0.16-0.329 0.292-0.433s0.282-0.16 0.471-0.16h2.344c0.273 0 0.461 0.056 0.574 0.169s0.169 0.264 0.169 0.471c0 0.085-0.019 0.188-0.066 0.339l-4.847 11.661c0.922 2.231 1.835 4.452 2.739 6.654 0.643 1.551 1.286 3.107 1.932 4.67l0.816 1.974c1.576-3.891 3.159-7.758 4.736-11.608l0.384-0.938c1.713-4.16 3.416-8.348 5.129-12.565 0.113-0.254 0.254-0.461 0.424-0.602 0.169-0.151 0.405-0.226 0.715-0.226h1.779c0.301 0 0.527 0.056 0.678 0.169 0.16 0.113 0.235 0.264 0.235 0.471 0 0.031-0.006 0.069-0.014 0.113v0l-0.005 0.028c-0.006 0.017-0.011 0.034-0.015 0.049v0c-0.010 0.035-0.019 0.063-0.032 0.083l-12.32 29.6c-0.019 0.075-0.047 0.132-0.085 0.169l-0.066 0.132c-0.047 0.085-0.094 0.169-0.169 0.263s-0.169 0.179-0.292 0.254c-0.132 0.075-0.282 0.113-0.452 0.113h-1.29c-0.367 0-0.621-0.094-0.772-0.282s-0.235-0.367-0.263-0.518l-5.675-13.572-5.61 13.44c-0.075 0.339-0.226 0.584-0.47 0.725s-0.471 0.207-0.696 0.207h-1.148c-0.169 0-0.311-0.028-0.424-0.094s-0.207-0.132-0.292-0.216c-0.085-0.094-0.151-0.179-0.207-0.273-0.047-0.085-0.085-0.169-0.113-0.235l-12.301-29.647c0-0.038-0.009-0.075-0.038-0.141-0.019-0.066-0.028-0.132-0.028-0.198 0-0.433 0.264-0.64 0.781-0.64h2.061c0.48 0 0.838 0.32 1.092 0.951l10.193 24.988zM51.294 0h20.376c0.63 0 0.951 0.329 0.951 0.998v1.713c0 0.254-0.085 0.48-0.254 0.678s-0.414 0.301-0.744 0.301h-17.591v9.355h13.995c0.254 0 0.471 0.075 0.659 0.235 0.179 0.151 0.273 0.395 0.273 0.744v1.732c0 0.254-0.075 0.48-0.235 0.678s-0.386 0.292-0.696 0.292h-13.995v11.040h17.788c0.631 0 0.951 0.329 0.951 0.998v1.75c0 0.621-0.311 0.932-0.932 0.932h-20.546c-0.621 0-0.932-0.292-0.932-0.885v-29.581c0-0.659 0.31-0.979 0.932-0.979zM115.774 24.565l2.457 6.080c0.094 0.235 0.245 0.433 0.433 0.584 0.187 0.141 0.423 0.216 0.705 0.216h1.826c0.282 0 0.509-0.056 0.687-0.169 0.179-0.113 0.264-0.282 0.264-0.508 0-0.085-0.029-0.188-0.075-0.311-0.016-0.044-0.030-0.080-0.040-0.11l-0.001-0.002-0.001-0.002v-0.001c-0.022-0.058-0.033-0.090-0.033-0.102l-12.198-29.459c-0.066-0.151-0.169-0.32-0.301-0.508-0.141-0.179-0.376-0.273-0.734-0.273h-1.252c-0.377 0-0.64 0.094-0.772 0.273-0.132 0.188-0.226 0.358-0.282 0.508l-0.019 0.066c-0.006 0.015-0.015 0.037-0.028 0.069-0.029 0.070-0.076 0.183-0.141 0.345-0.052 0.117-0.115 0.266-0.193 0.446l-0 0.001-0.001 0.002c-0.078 0.181-0.169 0.395-0.277 0.643-0.214 0.484-0.501 1.188-0.872 2.095l-0 0-0.013 0.031c-0.386 0.922-0.875 2.089-1.468 3.501s-1.318 3.153-2.174 5.223l-0.153 0.367c-0.832 1.989-1.797 4.296-2.887 6.937-1.167 2.805-2.513 6.042-4.038 9.713-0.028 0.038-0.047 0.085-0.066 0.151-0.028 0.141-0.038 0.273-0.038 0.395 0 0.452 0.301 0.678 0.913 0.678h1.816c0.555 0 0.941-0.282 1.167-0.847l2.391-6.033h15.397zM108.132 5.468l6.155 15.501h-12.386l6.231-15.501zM147.36 14.419c-0.555 0.584-1.214 1.035-1.976 1.384-0.762 0.339-1.591 0.508-2.475 0.508h-9.573v-12.687h9.506c0.894 0 1.722 0.169 2.504 0.518 0.771 0.348 1.44 0.809 2.005 1.393 0.565 0.593 1.007 1.261 1.336 2.024s0.489 1.572 0.489 2.419c0 0.847-0.16 1.656-0.489 2.419-0.329 0.772-0.762 1.449-1.327 2.024zM129.675 30.513c0 0.621 0.301 0.932 0.931 0.932h1.798c0.622 0 0.931-0.311 0.931-0.932v-10.588h9.082c0.283 0 0.509 0 0.678-0.009 0.17-0.009 0.33-0.019 0.49-0.047l5.12 10.776c0.112 0.254 0.254 0.452 0.414 0.593s0.386 0.207 0.669 0.207h2.136c0.245 0 0.433-0.047 0.565-0.16 0.133-0.104 0.198-0.235 0.198-0.386 0-0.085-0.029-0.216-0.103-0.386l-5.573-11.473c0.866-0.395 1.647-0.904 2.353-1.515s1.309-1.318 1.826-2.099c0.507-0.781 0.894-1.628 1.185-2.55 0.282-0.922 0.424-1.873 0.424-2.88 0-1.374-0.264-2.664-0.782-3.878-0.507-1.214-1.214-2.278-2.117-3.181-0.895-0.913-1.949-1.628-3.153-2.155-1.205-0.518-2.504-0.781-3.906-0.781h-12.235c-0.291 0-0.509 0.085-0.678 0.264-0.178 0.179-0.254 0.424-0.254 0.753v29.496zM181.816 0.235c-0.198-0.16-0.423-0.235-0.678-0.235h-21.787c-0.293 0-0.518 0.085-0.697 0.254-0.169 0.169-0.263 0.395-0.263 0.678v1.732c0 0.358 0.094 0.612 0.263 0.781 0.179 0.16 0.405 0.245 0.697 0.245h9.082v26.805c0 0.282 0.085 0.508 0.273 0.687 0.187 0.179 0.414 0.264 0.696 0.264h1.722c0.32 0 0.565-0.085 0.725-0.273s0.245-0.405 0.245-0.678v-26.805h9.045c0.32 0 0.575-0.104 0.753-0.301 0.17-0.198 0.264-0.433 0.264-0.725v-1.732c-0.029-0.311-0.142-0.546-0.339-0.696z"></path>
</symbol>
</defs>
</svg>
